<?xml version="1.0" encoding="utf-8"?>
<!-- Generator: Adobe Illustrator 24.0.2, SVG Export Plug-In . SVG Version: 6.00 Build 0)  -->
<svg version="1.1" id="Layer_1" xmlns="http://www.w3.org/2000/svg" xmlns:xlink="http://www.w3.org/1999/xlink" x="0px" y="0px"
	 viewBox="0 0 250 250" style="enable-background:new 0 0 250 250;" xml:space="preserve">
<style type="text/css">
	.st0{fill:#3863FC;}
</style>
<g>
	<ellipse class="st0" cx="128.1" cy="67.6" rx="64.2" ry="63.6"/>
	<path class="st0" d="M202.8,183.4c-1.6-25-13.2-46.9-30.5-61.2c-8.3,8.1-18.9,14-30.7,16.6l3.2,44.6l2.9,40.1l-19.4,13.1L109,223.5
		l2.9-40.1l3.2-44.2c-13.4-2.6-25.2-9.3-34.2-18.8c-18.5,14.2-31,36.9-32.7,63h-0.2v5.9v50.1c0,4.2,3.4,7.6,7.6,7.6h140
		c4.2,0,7.6-3.4,7.6-7.6v-50.1v-5.9L202.8,183.4L202.8,183.4z"/>
</g>
</svg>
