<?xml version="1.0" encoding="utf-8"?>
<!-- Generator: Adobe Illustrator 24.0.2, SVG Export Plug-In . SVG Version: 6.00 Build 0)  -->
<svg version="1.1" id="Layer_1" xmlns="http://www.w3.org/2000/svg" xmlns:xlink="http://www.w3.org/1999/xlink" x="0px" y="0px"
	 viewBox="0 0 50 50" style="enable-background:new 0 0 50 50;" xml:space="preserve">
<style type="text/css">
	.st0{fill:#415FA9;}
</style>
<g>
	<path class="st0" d="M35.82,23.91c-2.24,3.36-6.14,4.42-10.72,4.42c-4.53,0-8.63-1.02-11.04-4.33c-4.35,2.54-7.17,11.09-7.17,15.61
		c0,7.69,8.12,10.17,18.13,10.17c10.01,0,18.13-2.49,18.13-10.17C43.15,35.04,40.26,26.45,35.82,23.91z"/>
</g>
<path class="st0" d="M37.59,12.77c0,7.19-5.55,13.59-12.74,13.59s-13.29-6.4-13.29-13.59s5.83-12.4,13.02-12.4
	S37.59,5.58,37.59,12.77z"/>
</svg>
